<svg width="24" height="16" viewBox="0 0 24 16" fill="none" xmlns="http://www.w3.org/2000/svg">
    <path d="M8.32038 1.92259C8.65511 1.59715 8.65511 1.06951 8.32038 0.744078C7.98564 0.418641 7.44293 0.418641 7.10819 0.744078L0.251051 7.41074C-0.0836838 7.73618 -0.0836838 8.26382 0.251051 8.58925L7.10819 15.2559C7.44293 15.5814 7.98564 15.5814 8.32038 15.2559C8.65511 14.9305 8.65511 14.4028 8.32038 14.0774L2.06933 8L8.32038 1.92259Z"
          fill="#CED0D6"/>
    <path d="M16.8918 0.744078C16.5571 0.418641 16.0144 0.418641 15.6796 0.744078C15.3449 1.06951 15.3449 1.59715 15.6796 1.92259L21.9307 8L15.6796 14.0774C15.3449 14.4028 15.3449 14.9305 15.6796 15.2559C16.0144 15.5814 16.5571 15.5814 16.8918 15.2559L23.7489 8.58926C24.0837 8.26382 24.0837 7.73618 23.7489 7.41075L16.8918 0.744078Z"
          fill="#CED0D6"/>
</svg>
