<svg width="24" height="24" viewBox="0 0 24 24" fill="none" xmlns="http://www.w3.org/2000/svg">
    <path d="M2.39961 7.15256e-06C1.07434 7.15256e-06 0 1.00737 0 2.25001C0 3.49265 1.07434 4.50001 2.39961 4.50001H9.59845V12.75C9.59845 16.4779 6.37542 19.5 2.39961 19.5C1.07434 19.5 0 20.5074 0 21.75C0 22.9926 1.07434 24 2.39961 24C9.02596 24 14.3977 18.9632 14.3977 12.75V2.62501C14.3977 1.17526 13.1443 7.15256e-06 11.5981 7.15256e-06H2.39961Z" fill="#A177F4"/>
    <path d="M24 2.24999C24 1.00735 22.9257 -7.15256e-06 21.6004 -7.15256e-06C20.2751 -7.15256e-06 19.2008 1.00735 19.2008 2.24999V21.75C19.2008 22.9926 20.2751 24 21.6004 24C22.9257 24 24 22.9926 24 21.75V2.24999Z" fill="#A177F4"/>
    <circle cx="3.5" cy="11.5" r="3.5" fill="#DB5C5C"/>
</svg>
